HIERARCHY
ROOT Hips
{
	OFFSET -0.001795 -0.223333 0.028219
	CHANNELS 6 Xposition Yposition Zposition Zrotation Yrotation Xrotation 
	JOINT LeftUpLeg
	{
		OFFSET 0.069520 -0.091406 -0.006815
		CHANNELS 3 Zrotation Yrotation Xrotation
		JOINT LeftLeg
		{
			OFFSET 0.034277 -0.375199 -0.004496
			CHANNELS 3 Zrotation Yrotation Xrotation
			JOINT LeftFoot
			{
				OFFSET -0.013596 -0.397961 -0.043693
				CHANNELS 3 Zrotation Yrotation Xrotation
				JOINT LeftToe
				{
					OFFSET 0.026358 -0.055791 0.119288
					CHANNELS 3 Zrotation Yrotation Xrotation
					End Site
					{
						OFFSET 0.000000 0.000000 0.000000
					}
				}
			}
		}
	}
	JOINT RightUpLeg
	{
		OFFSET -0.067670 -0.090522 -0.004320
		CHANNELS 3 Zrotation Yrotation Xrotation
		JOINT RightLeg
		{
			OFFSET -0.038290 -0.382569 -0.008850
			CHANNELS 3 Zrotation Yrotation Xrotation
			JOINT RightFoot
			{
				OFFSET 0.015774 -0.398415 -0.042312
				CHANNELS 3 Zrotation Yrotation Xrotation
				JOINT RightToe
				{
					OFFSET -0.025372 -0.048144 0.123348
					CHANNELS 3 Zrotation Yrotation Xrotation
					End Site
					{
						OFFSET 0.000000 0.000000 0.000000
					}
				}
			}
		}
	}
	JOINT Spine
	{
		OFFSET -0.002533 0.108963 -0.026696
		CHANNELS 3 Zrotation Yrotation Xrotation
		JOINT Spine1
		{
			OFFSET 0.005487 0.135180 0.001092
			CHANNELS 3 Zrotation Yrotation Xrotation
			JOINT Spine2
			{
				OFFSET 0.001457 0.052922 0.025425
				CHANNELS 3 Zrotation Yrotation Xrotation
				JOINT Neck
				{
					OFFSET -0.002778 0.213870 -0.042857
					CHANNELS 3 Zrotation Yrotation Xrotation
					JOINT Head
					{
						OFFSET 0.005152 0.064970 0.051349
						CHANNELS 3 Zrotation Yrotation Xrotation
						End Site
						{
							OFFSET 0.000000 0.000000 0.000000
						}
					}
				}
				JOINT LeftShoulder
				{
					OFFSET 0.078845 0.121749 -0.034090
					CHANNELS 3 Zrotation Yrotation Xrotation
					JOINT LeftArm
					{
						OFFSET 0.090977 0.030469 -0.008868
						CHANNELS 3 Zrotation Yrotation Xrotation
						JOINT LeftForeArm
						{
							OFFSET 0.259612 -0.012772 -0.027456
							CHANNELS 3 Zrotation Yrotation Xrotation
							JOINT LeftHand
							{
								OFFSET 0.249234 0.008986 -0.001171
								CHANNELS 3 Zrotation Yrotation Xrotation
								End Site
								{
									OFFSET 0.000000 0.000000 0.000000
								}
							}
						}
					}
				}
				JOINT RightShoulder
				{
					OFFSET -0.081759 0.118833 -0.038615
					CHANNELS 3 Zrotation Yrotation Xrotation
					JOINT RightArm
					{
						OFFSET -0.096012 0.032551 -0.009143
						CHANNELS 3 Zrotation Yrotation Xrotation
						JOINT RightForeArm
						{
							OFFSET -0.253742 -0.013329 -0.021401
							CHANNELS 3 Zrotation Yrotation Xrotation
							JOINT RightHand
							{
								OFFSET -0.255298 0.007772 -0.005559
								CHANNELS 3 Zrotation Yrotation Xrotation
								End Site
								{
									OFFSET 0.000000 0.000000 0.000000
								}
							}
						}
					}
				}
			}
		}
	}
}
MOTION
Frames: 9
Frame Time: 0.050000
0.000000 0.927013 0.000000 -0.830570 -0.188298 2.612463 2.499352 -0.461949 -6.008471 -0.435224 -0.635291 22.413103 1.217887 -0.759439 -7.124845 0.000000 0.000000 0.000000 3.126348 0.855498 -7.435755 -0.788183 0.490807 8.650121 0.782115 5.261625 -4.946677 0.000000 0.000000 0.000000 3.797647 -0.335871 3.627064 -1.234086 0.596655 -0.694461 -1.822573 0.134128 7.743615 3.684942 -1.370488 -13.667436 0.000000 0.000000 0.000000 -23.340137 -4.820562 0.548619 -46.166875 -4.231677 -4.138196 -2.303994 -34.268812 2.110222 0.000000 0.000000 0.000000 22.831674 -0.014384 -1.974528 49.380540 0.667144 -4.799880 8.303913 34.371076 3.721202 0.000000 0.000000 0.000000 
-0.003960 0.930937 0.006952 -0.839007 0.726382 2.642683 3.479636 -0.775032 -11.554080 -2.914670 -0.041525 31.909718 2.266756 3.818860 -2.573150 0.000000 0.000000 0.000000 3.184607 0.660629 -5.863821 -0.416345 0.344029 7.008431 1.612062 6.501994 -3.442247 0.000000 0.000000 0.000000 4.472822 -0.477800 4.948740 -1.557325 0.766151 -2.004610 -1.909106 0.020273 8.124618 2.944678 -0.858397 -13.720047 0.000000 0.000000 0.000000 -25.566385 -6.617314 1.410740 -45.387054 -3.588075 -4.285000 0.696161 -35.236311 1.205446 0.000000 0.000000 0.000000 22.867459 0.148473 -1.749392 47.778409 -0.452151 -5.127435 11.926042 35.699238 5.040460 0.000000 0.000000 0.000000 
-0.005909 0.931834 0.014552 -0.568682 2.054428 2.805357 3.622957 -1.133652 -17.004729 -4.203676 0.246723 38.232562 3.507861 6.433813 -2.894613 0.000000 0.000000 0.000000 2.790108 0.548684 -4.984578 0.136622 0.215102 6.309540 1.565441 6.416896 -3.618503 0.000000 0.000000 0.000000 5.086499 -0.542423 5.176644 -1.020776 0.518323 -1.529234 -2.751982 1.358880 7.536459 3.503490 -1.158788 -12.322342 0.000000 0.000000 0.000000 -25.769274 -7.781798 1.260812 -46.183422 -3.755262 -3.985779 0.182995 -35.756564 1.171145 0.000000 0.000000 0.000000 22.195504 -0.030852 -1.137097 49.047336 0.188584 -5.130878 12.091794 35.277928 5.250531 0.000000 0.000000 0.000000 
-0.006368 0.933361 0.023548 -0.254006 2.840955 1.627314 3.589221 -1.279276 -18.857648 -3.979280 -0.026306 39.489426 4.370097 8.304360 -2.912175 0.000000 0.000000 0.000000 2.386988 0.318281 -3.043612 0.027052 0.205797 5.679019 2.460631 8.981012 -3.665412 0.000000 0.000000 0.000000 5.120646 -0.679666 6.912793 -1.162009 0.558563 -0.245821 -3.008931 2.004270 7.114226 2.843827 -0.817945 -10.681216 0.000000 0.000000 0.000000 -26.258052 -8.786206 1.407365 -45.655718 -4.157461 -3.628240 -0.301483 -36.983839 1.253376 0.000000 0.000000 0.000000 21.930278 0.627176 -0.420145 48.181605 1.400209 -4.659091 13.729050 35.511855 5.897953 0.000000 0.000000 0.000000 
-0.005760 0.934121 0.033369 0.311622 3.548367 1.397443 3.326313 -1.448945 -20.328054 -3.598919 -0.240448 36.512325 4.717629 8.722843 -3.932063 0.000000 0.000000 0.000000 1.972544 0.223109 -2.213929 -0.528766 0.292085 5.669280 1.710167 7.703919 -4.957146 0.000000 0.000000 0.000000 4.458542 -0.738902 8.231691 -1.050333 0.512469 -0.464321 -2.805784 1.907770 6.891455 1.893505 -0.190697 -10.342869 0.000000 0.000000 0.000000 -26.405279 -9.456366 1.718584 -45.273547 -3.396707 -3.818041 -2.586421 -39.409576 2.115527 0.000000 0.000000 0.000000 21.935646 1.675719 0.252028 47.502315 1.393831 -4.607958 15.203250 37.723458 6.837017 0.000000 0.000000 0.000000 
-0.004062 0.934964 0.043731 0.470036 3.426539 1.944261 3.386536 -1.642440 -22.997780 -3.295932 -0.206083 31.719311 5.042205 10.029180 -2.019658 0.000000 0.000000 0.000000 1.952275 0.236756 -2.355766 -0.729114 0.330007 5.792509 1.446683 7.136946 -5.244702 0.000000 0.000000 0.000000 4.237835 -0.751056 8.519376 -1.423870 0.679103 -0.147057 -3.384221 2.862032 6.448250 1.734354 0.055423 -10.780130 0.000000 0.000000 0.000000 -26.852813 -9.937543 1.574099 -43.766535 -3.320766 -3.520490 -2.858825 -41.087368 2.186485 0.000000 0.000000 0.000000 22.212647 1.690223 0.555005 47.921509 1.804587 -4.533458 16.853918 40.197695 8.112944 0.000000 0.000000 0.000000 
-0.000750 0.933826 0.055267 0.202948 3.478136 1.684669 4.327116 -1.550213 -24.070232 -3.395880 -0.044057 26.631619 4.367095 9.254368 0.209469 0.000000 0.000000 0.000000 2.036659 0.158663 -1.687745 -0.500342 0.301261 6.018248 0.821713 5.607950 -5.759022 0.000000 0.000000 0.000000 3.643036 -0.799259 9.850498 -1.545548 0.735066 -0.034925 -3.053937 3.135603 6.674424 1.602087 0.185572 -10.962766 0.000000 0.000000 0.000000 -26.129816 -9.605185 1.336262 -43.856541 -4.920847 -2.988919 -4.120875 -42.361359 2.701177 0.000000 0.000000 0.000000 21.427098 2.179694 0.921604 48.745353 2.408230 -4.380471 18.557488 42.967545 9.523642 0.000000 0.000000 0.000000 
0.004353 0.931889 0.068594 -0.030873 3.142682 1.177452 5.792458 -1.283805 -24.653230 -2.725054 -0.086304 20.498500 3.269967 8.065996 3.531941 0.000000 0.000000 0.000000 1.443914 0.021565 -0.445352 -0.060283 0.244023 6.401421 0.375005 5.264776 -7.182475 0.000000 0.000000 0.000000 3.289233 -0.811132 10.593461 -1.842357 0.862519 0.822454 -2.915996 3.292511 7.227812 -0.364810 1.487905 -10.762691 0.000000 0.000000 0.000000 -24.864888 -10.638920 2.100856 -44.107794 -7.425050 -2.229349 -4.721016 -43.545265 3.028706 0.000000 0.000000 0.000000 19.945894 3.363445 1.587364 50.601930 3.836463 -3.937439 18.542312 45.260692 10.167786 0.000000 0.000000 0.000000 
0.011352 0.928745 0.083925 -0.203111 2.514256 0.646675 6.454423 -1.088458 -24.187766 -0.958905 -0.319135 13.740125 1.683746 5.492550 4.962188 0.000000 0.000000 0.000000 0.633575 -0.125923 1.048964 -0.134538 0.256905 6.291592 0.945956 7.579716 -7.701854 0.000000 0.000000 0.000000 2.341604 -0.745813 11.280315 -2.042125 0.948222 1.894583 -2.808591 3.449256 6.938528 -0.669206 1.722013 -11.301164 0.000000 0.000000 0.000000 -24.329626 -11.701992 2.816484 -43.412585 -9.819511 -1.374197 -5.321894 -46.109505 3.474586 0.000000 0.000000 0.000000 19.608761 4.799657 2.331301 51.708983 5.413572 -3.304233 17.498858 46.196827 9.940401 0.000000 0.000000 0.000000 
